<svg xmlns="http://www.w3.org/2000/svg" width="32" height="32" viewBox="0 0 256 256">
<defs>
<linearGradient x1="0.085" y1="0.085" x2="0.915" y2="0.915" id="rssg">
<stop offset="0.0" stop-color="#E3702D"/>
<stop offset="0.1071" stop-color="#EA7D31"/>
<stop offset="0.3503" stop-color="#F69537"/>
<stop offset="0.5" stop-color="#FB9E3A"/>
<stop offset="0.7016" stop-color="#EA7C31"/>
<stop offset="0.8866" stop-color="#DE642B"/>
<stop offset="1.0" stop-color="#D95B29"/>
</linearGradient>
</defs>
<rect fill="#cc5d15" width="256" height="256" rx="55" ry="55"/>
<rect fill="#f49c52" width="246" height="246" rx="50" ry="50" x="5" y="5"/>
<rect fill="url(#rssg)" width="236" height="236" rx="47" ry="47" x="10" y="10"/>
<circle fill="#ffffff" cx="68" cy="189" r="24"/>
<path fill="#ffffff" d="M160 213h-34a82 82 0 0 0 -82 -82v-34a116 116 0 0 1 116 116z"/>
<path fill="#ffffff" d="M184 213A140 140 0 0 0 44 73 V 38a175 175 0 0 1 175 175z"/>
</svg>
