<svg xmlns="http://www.w3.org/2000/svg" width="360" height="360" viewBox="0 0 360 360"><path fill="#AFE356" d="M360 310c0 27.5-22.5 50-50 50H50c-27.5 0-50-22.5-50-50V50C0 22.5 22.5 0 50 0h260c27.5 0 50 22.5 50 50v260z"/><path fill="#FFF" d="m187.6 73-27.9 212.6h-31l-8.6-77.6c-2.1-19.8-4-41.5-5.6-67.1h-.3c-2.3 25.3-4.3 46.8-6.9 67.4l-9.7 77.3H66.8L40.5 73h30.9l7.3 83.1c2.1 24.8 4 51.2 5.8 74.5h.3c2-24.5 5-49.2 7.8-75.1l9.2-82.5h28.1l8.6 84.2c2.5 24.5 4.5 47.3 6.1 72.9h.5c1.7-25.6 3.6-49.5 5.9-74.5l7.6-82.5h29zM199.2 182.4c0-67.7 23-107.3 61.6-107.3 39.4 0 59.2 42.4 59.2 105.1 0 70.1-22.8 108.4-61.1 108.4-38.9 0-59.7-42.6-59.7-106.2zm91.8-1.1c0-49.2-9.4-80.9-31.2-80.9-18.8 0-31.7 29.2-31.7 80.9 0 51.4 11.4 81.7 31.2 81.7 24.3 0 31.7-38.8 31.7-81.7z"/></svg>