<?xml version="1.0" encoding="utf-8"?>
<!-- Generator: Adobe Illustrator 16.0.0, SVG Export Plug-In . SVG Version: 6.00 Build 0)  -->
<!DOCTYPE svg PUBLIC "-//W3C//DTD SVG 1.1//EN" "http://www.w3.org/Graphics/SVG/1.1/DTD/svg11.dtd">
<svg version="1.1" id="レイヤー_1" xmlns="http://www.w3.org/2000/svg" xmlns:xlink="http://www.w3.org/1999/xlink" x="0px"
	 y="0px" width="79px" height="79px" viewBox="-2 0 79 79" enable-background="new -2 0 79 79" xml:space="preserve">
<linearGradient id="SVGID_1_" gradientUnits="userSpaceOnUse" x1="-502.2109" y1="422.4004" x2="-502.2109" y2="343.4004" gradientTransform="matrix(1 0 0 -1 539.2803 422.4004)">
	<stop  offset="0" style="stop-color:#6364FF"/>
	<stop  offset="1" style="stop-color:#563ACC"/>
</linearGradient>
<path fill="url(#SVGID_1_)" d="M73.84,17.49C72.697,9.001,65.299,2.313,56.529,1.016C55.05,0.797,49.444,0,36.458,0h-0.097
	c-12.99,0-15.776,0.797-17.256,1.016C10.58,2.276,2.794,8.287,0.905,16.876c-0.908,4.229-1.005,8.919-0.836,13.221
	c0.24,6.168,0.287,12.326,0.848,18.47c0.387,4.081,1.063,8.129,2.021,12.115c1.796,7.36,9.064,13.486,16.186,15.984
	c7.625,2.607,15.824,3.039,23.681,1.25c0.864-0.201,1.718-0.434,2.561-0.7c1.911-0.606,4.147-1.285,5.793-2.478
	c0.022-0.017,0.041-0.038,0.054-0.063c0.014-0.025,0.021-0.053,0.021-0.081v-5.953c0-0.026-0.006-0.052-0.018-0.075
	s-0.029-0.045-0.05-0.061s-0.044-0.027-0.07-0.033c-0.025-0.006-0.052-0.006-0.077,0c-5.034,1.202-10.192,1.805-15.367,1.795
	c-8.906,0-11.302-4.226-11.988-5.984c-0.551-1.521-0.901-3.107-1.042-4.719c-0.001-0.027,0.003-0.055,0.015-0.078
	c0.011-0.025,0.027-0.047,0.049-0.064c0.021-0.018,0.045-0.029,0.072-0.035c0.027-0.006,0.054-0.005,0.081,0.002
	c4.949,1.193,10.023,1.797,15.115,1.795c1.225,0,2.446,0,3.671-0.031c5.121-0.145,10.518-0.406,15.557-1.391
	c0.125-0.025,0.252-0.047,0.359-0.078c7.947-1.527,15.51-6.316,16.279-18.445c0.028-0.478,0.1-5.002,0.1-5.498
	C73.922,34.057,74.461,23.795,73.84,17.49z"/>
<path fill="#FFFFFF" d="M61.248,27.026v21.087h-8.356V27.647c0-4.309-1.796-6.506-5.448-6.506c-4.015,0-6.025,2.6-6.025,7.734
	v11.203h-8.307V28.875c0-5.135-2.015-7.734-6.03-7.734c-3.631,0-5.444,2.198-5.444,6.506v20.466h-8.354V27.026
	c0-4.309,1.1-7.732,3.301-10.269c2.27-2.531,5.247-3.831,8.942-3.831c4.277,0,7.509,1.644,9.664,4.93l2.079,3.49l2.083-3.49
	c2.155-3.286,5.387-4.93,9.657-4.93c3.691,0,6.668,1.3,8.945,3.831C60.153,19.292,61.251,22.715,61.248,27.026z"/>
</svg>
