<?xml version="1.0" encoding="utf-8"?>
<!-- Generator: Adobe Illustrator 16.0.0, SVG Export Plug-In . SVG Version: 6.00 Build 0)  -->
<!DOCTYPE svg PUBLIC "-//W3C//DTD SVG 1.1//EN" "http://www.w3.org/Graphics/SVG/1.1/DTD/svg11.dtd">
<svg version="1.1" id="レイヤー_1" xmlns="http://www.w3.org/2000/svg" xmlns:xlink="http://www.w3.org/1999/xlink" x="0px"
	 y="0px" width="98px" height="98px" viewBox="0 -1 98 98" enable-background="new 0 -1 98 98" xml:space="preserve">
<path fill="#24292F" d="M48.854,0C21.839,0,0,22,0,49.217c0,21.756,13.993,40.172,33.405,46.689c2.427,0.49,3.316-1.059,3.316-2.361
	c0-1.141-0.08-5.052-0.08-9.127c-13.59,2.934-16.42-5.867-16.42-5.867c-2.184-5.703-5.42-7.17-5.42-7.17
	c-4.448-3.015,0.324-3.015,0.324-3.015c4.934,0.325,7.523,5.052,7.523,5.052c4.367,7.496,11.404,5.378,14.235,4.074
	c0.404-3.178,1.699-5.379,3.074-6.6c-10.839-1.142-22.243-5.379-22.243-24.284c0-5.378,1.94-9.778,5.014-13.2
	c-0.485-1.222-2.184-6.275,0.486-13.038c0,0,4.125-1.304,13.426,5.052c3.982-1.077,8.088-1.625,12.214-1.63
	c4.125,0,8.33,0.571,12.212,1.63c9.303-6.356,13.428-5.052,13.428-5.052c2.67,6.763,0.97,11.816,0.484,13.038
	c3.155,3.422,5.016,7.822,5.016,13.2c0,18.905-11.404,23.06-22.324,24.284c1.78,1.547,3.316,4.48,3.316,9.125
	c0,6.601-0.08,11.897-0.08,13.526c0,1.304,0.89,2.853,3.316,2.364c19.411-6.52,33.404-24.936,33.404-46.691
	C97.707,22,75.788,0,48.854,0z"/>
</svg>
