<!--?xml version="1.0" encoding="utf-8"?-->
<!-- Generator: Adobe Illustrator 15.1.0, SVG Export Plug-In . SVG Version: 6.00 Build 0)  -->
<!-- https://icooon-mono.com/10824-%e6%8b%a1%e5%a4%a7%e3%82%a2%e3%82%a4%e3%82%b3%e3%83%b31/ -->

<svg xmlns="http://www.w3.org/2000/svg" width="512" height="512" viewBox="0 0 512 512">
<style type="text/css">
path {
	fill: #666;
}
</style>

<path d="M499.523,439.313l-79.547-79.563l-60.219,60.219l79.547,79.563C447.352,507.563,458.039,512,469.43,512
	c11.359,0,22.047-4.438,30.094-12.469c8.047-8.047,12.469-18.75,12.469-30.125S507.57,447.344,499.523,439.313z"></path>
<path d="M399.398,362.313l-41.391-41.406c0.063-0.094,0.063-0.188,0.125-0.25
	c26.563-34.719,41.156-77.688,41.125-121.031c0.047-53.281-20.719-103.438-58.469-141.156C303.117,20.766,253.07,0,199.383,0
	C146.18,0,96.148,20.766,58.477,58.469C20.711,96.188-0.055,146.344,0.008,199.641c-0.047,53.297,20.719,103.422,58.453,141.141
	c37.688,37.719,87.766,58.469,141.188,58.469h0.188c43.234,0,86.141-14.594,120.828-41.125c0.078-0.063,0.156-0.094,0.234-0.125
	l41.406,41.406L399.398,362.313z M294.695,294.688c-25.391,25.344-59.125,39.344-95.078,39.406
	c-35.922-0.063-69.672-14.063-95.047-39.406c-25.359-25.359-39.344-59.125-39.391-95.063c0.047-35.938,14.031-69.688,39.375-95.063
	c25.375-25.344,59.125-39.313,95.063-39.391c0.016-0.016,0.031,0,0.031,0c35.922,0.078,69.672,14.047,95.047,39.391
	c25.344,25.359,39.328,59.125,39.391,95.094C334.023,235.578,320.039,269.344,294.695,294.688z"></path>
<path d="M266.789,180.031h-47.563v-47.563c0-10.813-8.781-19.594-19.594-19.594s-19.594,8.781-19.594,19.594v47.563
	h-47.547c-10.828,0-19.594,8.781-19.594,19.594s8.766,19.594,19.594,19.594h47.547v47.563c0,10.813,8.781,19.594,19.594,19.594
	s19.594-8.781,19.594-19.594v-47.563h47.563c10.813,0,19.594-8.781,19.594-19.594S277.602,180.031,266.789,180.031z"></path>

</svg>
